<svg xmlns="http://www.w3.org/2000/svg" width="588" height="378" viewBox="0 0 588 378" version="1.1">
	<path d="M 98 16.500 C 99.866 18.425, 101.617 20, 101.892 20 C 102.167 20, 100.866 18.425, 99 16.500 C 97.134 14.575, 95.383 13, 95.108 13 C 94.833 13, 96.134 14.575, 98 16.500 M 103.731 18.920 C 103.296 20.583, 103.426 20.974, 104.168 20.232 C 104.750 19.650, 105.028 18.585, 104.788 17.863 C 104.538 17.114, 104.085 17.568, 103.731 18.920 M 515.462 27.250 L 510.500 32.500 515.750 27.538 C 518.638 24.808, 521 22.446, 521 22.288 C 521 21.541, 520.074 22.372, 515.462 27.250 M 87.813 30.683 C 88.534 30.972, 89.397 30.936, 89.729 30.604 C 90.061 30.272, 89.471 30.036, 88.417 30.079 C 87.252 30.127, 87.015 30.364, 87.813 30.683 M 93 32.313 C 93 32.485, 94.463 33.948, 96.250 35.563 L 99.500 38.500 96.563 35.250 C 93.825 32.221, 93 31.540, 93 32.313 M 81 42.637 C 81 43.171, 82.688 45.158, 84.750 47.054 L 88.500 50.500 85 46.511 C 83.075 44.317, 81.388 42.330, 81.250 42.094 C 81.112 41.859, 81 42.103, 81 42.637 M 131 46.378 C 131 46.585, 131.787 47.373, 132.750 48.128 C 134.336 49.371, 134.371 49.336, 133.128 47.750 C 131.821 46.084, 131 45.555, 131 46.378 M 108 48.378 C 108 48.585, 108.787 49.373, 109.750 50.128 C 111.336 51.371, 111.371 51.336, 110.128 49.750 C 108.821 48.084, 108 47.555, 108 48.378 M 97.086 58.618 C 98.414 60.333, 99.701 61.557, 99.947 61.338 C 100.193 61.119, 99.106 59.716, 97.533 58.220 L 94.672 55.500 97.086 58.618 M 227.921 66.750 C 226.794 68.239, 226.806 68.313, 227.998 67.250 C 229.931 65.527, 231.969 65.685, 234.421 67.750 C 236.498 69.498, 236.498 69.498, 234.595 67.250 C 232.312 64.554, 229.729 64.360, 227.921 66.750 M 472.872 70.750 C 471.629 72.336, 471.664 72.371, 473.250 71.128 C 474.916 69.821, 475.445 69, 474.622 69 C 474.415 69, 473.627 69.787, 472.872 70.750 M 292.158 72 C 292.158 73.375, 292.385 73.938, 292.662 73.250 C 292.940 72.563, 292.940 71.438, 292.662 70.750 C 292.385 70.063, 292.158 70.625, 292.158 72 M 450.872 72.750 C 449.629 74.336, 449.664 74.371, 451.250 73.128 C 452.212 72.373, 453 71.585, 453 71.378 C 453 70.555, 452.179 71.084, 450.872 72.750 M 466.872 75.750 C 465.629 77.336, 465.664 77.371, 467.250 76.128 C 468.916 74.821, 469.445 74, 468.622 74 C 468.415 74, 467.627 74.787, 466.872 75.750 M 238.079 76.583 C 238.127 77.748, 238.364 77.985, 238.683 77.188 C 238.972 76.466, 238.936 75.603, 238.604 75.271 C 238.272 74.939, 238.036 75.529, 238.079 76.583 M 291.195 78.500 C 291.215 80.150, 291.439 80.704, 291.693 79.731 C 291.947 78.758, 291.930 77.408, 291.656 76.731 C 291.382 76.054, 291.175 76.850, 291.195 78.500 M 299.079 79.583 C 299.127 80.748, 299.364 80.985, 299.683 80.188 C 299.972 79.466, 299.936 78.603, 299.604 78.271 C 299.272 77.939, 299.036 78.529, 299.079 79.583 M 441.872 79.750 C 440.629 81.336, 440.664 81.371, 442.250 80.128 C 443.916 78.821, 444.445 78, 443.622 78 C 443.415 78, 442.627 78.787, 441.872 79.750 M 325.405 89.250 L 323.500 91.500 325.750 89.595 C 327.864 87.805, 328.455 87, 327.655 87 C 327.465 87, 326.453 88.013, 325.405 89.250 M 331.158 89 C 331.158 90.375, 331.385 90.938, 331.662 90.250 C 331.940 89.563, 331.940 88.438, 331.662 87.750 C 331.385 87.063, 331.158 87.625, 331.158 89 M 126.500 91 C 127.495 92.100, 128.535 93, 128.810 93 C 129.085 93, 128.495 92.100, 127.500 91 C 126.505 89.900, 125.465 89, 125.190 89 C 124.915 89, 125.505 89.900, 126.500 91 M 240.079 100.583 C 240.127 101.748, 240.364 101.985, 240.683 101.188 C 240.972 100.466, 240.936 99.603, 240.604 99.271 C 240.272 98.939, 240.036 99.529, 240.079 100.583 M 153.500 105 C 154.495 106.100, 155.535 107, 155.810 107 C 156.085 107, 155.495 106.100, 154.500 105 C 153.505 103.900, 152.465 103, 152.190 103 C 151.915 103, 152.505 103.900, 153.500 105 M 147 108.500 C 148.292 109.875, 149.574 111, 149.849 111 C 150.124 111, 149.292 109.875, 148 108.500 C 146.708 107.125, 145.426 106, 145.151 106 C 144.876 106, 145.708 107.125, 147 108.500 M 308.813 106.683 C 309.534 106.972, 310.397 106.936, 310.729 106.604 C 311.061 106.272, 310.471 106.036, 309.417 106.079 C 308.252 106.127, 308.015 106.364, 308.813 106.683 M 393.946 109.750 L 390.500 113.500 394.250 110.054 C 396.313 108.158, 398 106.471, 398 106.304 C 398 105.540, 397.154 106.260, 393.946 109.750 M 195.031 110.500 C 195.031 111.050, 195.467 112.175, 196 113 C 196.533 113.825, 196.969 114.050, 196.969 113.500 C 196.969 112.950, 196.533 111.825, 196 111 C 195.467 110.175, 195.031 109.950, 195.031 110.500 M 405.366 113.073 C 406.815 114.213, 408.789 114.941, 409.751 114.689 C 411.139 114.326, 411.061 114.208, 409.372 114.116 C 408.202 114.052, 406.685 113.325, 406 112.500 C 405.315 111.675, 404.300 111, 403.743 111 C 403.186 111, 403.916 111.933, 405.366 113.073 M 313.924 114.750 L 311.500 117.500 314.250 115.076 C 315.762 113.742, 317 112.505, 317 112.326 C 317 111.541, 316.190 112.180, 313.924 114.750 M 395.507 114.989 C 395.157 115.555, 395.558 115.723, 396.448 115.382 C 398.180 114.717, 398.497 114, 397.059 114 C 396.541 114, 395.843 114.445, 395.507 114.989 M 261.946 118.750 L 258.500 122.500 262.250 119.054 C 264.313 117.158, 266 115.471, 266 115.304 C 266 114.540, 265.154 115.260, 261.946 118.750 M 218 117.378 C 218 117.585, 218.787 118.373, 219.750 119.128 C 221.336 120.371, 221.371 120.336, 220.128 118.750 C 218.821 117.084, 218 116.555, 218 117.378 M 231.252 122.500 C 231.263 124.700, 231.468 125.482, 231.707 124.238 C 231.946 122.994, 231.937 121.194, 231.687 120.238 C 231.437 119.282, 231.241 120.300, 231.252 122.500 M 171 123.500 C 172.292 124.875, 173.574 126, 173.849 126 C 174.124 126, 173.292 124.875, 172 123.500 C 170.708 122.125, 169.426 121, 169.151 121 C 168.876 121, 169.708 122.125, 171 123.500 M 297.405 124.250 L 295.500 126.500 297.750 124.595 C 298.988 123.547, 300 122.535, 300 122.345 C 300 121.545, 299.195 122.136, 297.405 124.250 M 226 124.378 C 226 124.585, 226.787 125.373, 227.750 126.128 C 229.336 127.371, 229.371 127.336, 228.128 125.750 C 226.821 124.084, 226 123.555, 226 124.378 M 363.872 137.750 C 362.629 139.336, 362.664 139.371, 364.250 138.128 C 365.212 137.373, 366 136.585, 366 136.378 C 366 135.555, 365.179 136.084, 363.872 137.750 M 344.405 139.250 L 342.500 141.500 344.750 139.595 C 345.988 138.547, 347 137.535, 347 137.345 C 347 136.545, 346.195 137.136, 344.405 139.250 M 172.500 141 C 173.495 142.100, 174.535 143, 174.810 143 C 175.085 143, 174.495 142.100, 173.500 141 C 172.505 139.900, 171.465 139, 171.190 139 C 170.915 139, 171.505 139.900, 172.500 141 M 211.872 141.750 C 210.629 143.336, 210.664 143.371, 212.250 142.128 C 213.213 141.373, 214 140.585, 214 140.378 C 214 139.555, 213.179 140.084, 211.872 141.750 M 307.079 141.583 C 307.127 142.748, 307.364 142.985, 307.683 142.188 C 307.972 141.466, 307.936 140.603, 307.604 140.271 C 307.272 139.939, 307.036 140.529, 307.079 141.583 M 357.872 142.750 C 356.629 144.336, 356.664 144.371, 358.250 143.128 C 359.916 141.821, 360.445 141, 359.622 141 C 359.415 141, 358.627 141.787, 357.872 142.750 M 72.872 144.750 C 71.629 146.336, 71.664 146.371, 73.250 145.128 C 74.213 144.373, 75 143.585, 75 143.378 C 75 142.555, 74.179 143.084, 72.872 144.750 M 79 143.378 C 79 143.585, 79.787 144.373, 80.750 145.128 C 82.336 146.371, 82.371 146.336, 81.128 144.750 C 79.821 143.084, 79 142.555, 79 143.378 M 201.813 145.683 C 202.534 145.972, 203.397 145.936, 203.729 145.604 C 204.061 145.272, 203.471 145.036, 202.417 145.079 C 201.252 145.127, 201.015 145.364, 201.813 145.683 M 324.079 147.583 C 324.127 148.748, 324.364 148.985, 324.683 148.188 C 324.972 147.466, 324.936 146.603, 324.604 146.271 C 324.272 145.939, 324.036 146.529, 324.079 147.583 M 328 146.378 C 328 146.585, 328.788 147.373, 329.750 148.128 C 331.336 149.371, 331.371 149.336, 330.128 147.750 C 328.821 146.084, 328 145.555, 328 146.378 M 82.079 148.583 C 82.127 149.748, 82.364 149.985, 82.683 149.188 C 82.972 148.466, 82.936 147.603, 82.604 147.271 C 82.272 146.939, 82.036 147.529, 82.079 148.583 M 306.195 149.500 C 306.215 151.150, 306.439 151.704, 306.693 150.731 C 306.947 149.758, 306.930 148.408, 306.656 147.731 C 306.382 147.054, 306.175 147.850, 306.195 149.500 M 350.872 148.750 C 349.629 150.336, 349.664 150.371, 351.250 149.128 C 352.212 148.373, 353 147.585, 353 147.378 C 353 146.555, 352.179 147.084, 350.872 148.750 M 72 151.378 C 72 151.585, 72.787 152.373, 73.750 153.128 C 75.336 154.371, 75.371 154.336, 74.128 152.750 C 72.821 151.084, 72 150.555, 72 151.378 M 343.872 154.750 C 342.629 156.336, 342.664 156.371, 344.250 155.128 C 345.212 154.373, 346 153.585, 346 153.378 C 346 152.555, 345.179 153.084, 343.872 154.750 M 307.768 159.168 C 308.350 159.750, 309.415 160.028, 310.137 159.788 C 310.886 159.538, 310.432 159.085, 309.080 158.731 C 307.417 158.296, 307.026 158.426, 307.768 159.168 M 337.872 159.750 C 336.629 161.336, 336.664 161.371, 338.250 160.128 C 339.212 159.373, 340 158.585, 340 158.378 C 340 157.555, 339.179 158.084, 337.872 159.750 M 332.872 163.750 C 331.629 165.336, 331.664 165.371, 333.250 164.128 C 334.916 162.821, 335.445 162, 334.622 162 C 334.415 162, 333.627 162.787, 332.872 163.750 M 172.750 165.662 C 173.438 165.940, 174.563 165.940, 175.250 165.662 C 175.938 165.385, 175.375 165.158, 174 165.158 C 172.625 165.158, 172.063 165.385, 172.750 165.662 M 122.250 170.689 C 123.213 170.941, 124.787 170.941, 125.750 170.689 C 126.713 170.438, 125.925 170.232, 124 170.232 C 122.075 170.232, 121.287 170.438, 122.250 170.689 M 562.750 171.662 C 563.438 171.940, 564.563 171.940, 565.250 171.662 C 565.938 171.385, 565.375 171.158, 564 171.158 C 562.625 171.158, 562.063 171.385, 562.750 171.662 M 330 174.311 C 322.410 175.033, 319.175 175.752, 318.329 176.905 C 317.379 178.198, 314.922 178.519, 305.329 178.599 C 276.540 178.838, 271.610 179.603, 264.195 184.974 C 261.897 186.638, 259.394 188, 258.631 188 C 255.703 188, 254.848 190.686, 255.540 197.709 C 256.039 202.771, 255.826 205.480, 254.722 208.122 C 253.902 210.085, 253.172 213.899, 253.100 216.596 C 253.029 219.293, 252.864 224.716, 252.735 228.646 L 252.500 235.792 249 235.252 C 244.611 234.574, 238.237 231.700, 230.500 226.909 C 227.200 224.866, 222.475 222.236, 220 221.064 C 217.525 219.892, 214.386 218.007, 213.025 216.874 L 210.550 214.815 214.025 211.935 C 215.936 210.350, 218.063 209.042, 218.750 209.027 C 219.438 209.012, 220 208.603, 220 208.117 C 220 207.632, 222.974 205.297, 226.609 202.929 C 237.608 195.763, 248.926 182.577, 247.428 178.674 C 246.837 177.134, 241.416 175.625, 239.882 176.573 C 239.380 176.883, 238.362 178.568, 237.618 180.318 C 235.577 185.125, 224.570 194.778, 214.099 200.945 L 208.697 204.127 209.376 193.628 C 210.022 183.630, 209.949 183.030, 207.839 181.064 C 204.065 177.549, 200.117 179.053, 199.425 184.271 C 199.262 185.497, 198.404 191, 197.519 196.500 C 196.633 202, 195.518 213.382, 195.041 221.793 L 194.174 237.087 196.765 241.043 C 199.444 245.135, 201.318 245.966, 202.700 243.675 C 203.140 242.946, 204.261 242.070, 205.192 241.728 C 206.122 241.387, 207.636 239.958, 208.557 238.554 C 210.101 236.197, 210.106 235.810, 208.615 233.535 C 207.145 231.291, 206.421 228, 207.398 228 C 207.618 228, 212.230 230.322, 217.648 233.161 C 242.141 245.992, 240.360 245.283, 247.969 245.235 C 254.762 245.193, 255.059 245.293, 256.750 248.218 C 258.844 251.840, 265.535 255, 271.111 255 C 275.976 255, 285.646 250.287, 290.271 245.662 C 292.112 243.821, 295.148 239.365, 297.017 235.761 C 299.909 230.182, 300.249 228.842, 299.302 226.763 C 298.598 225.218, 297.433 224.376, 296.131 224.472 C 293.384 224.674, 290 227.847, 290 230.220 C 290 232.656, 280.475 242, 277.992 242 C 276.961 242, 275.840 242.450, 275.500 243 C 274.720 244.262, 268.314 244.317, 267.543 243.069 C 267.226 242.557, 267.425 241.856, 267.984 241.510 C 269.938 240.302, 269.040 236.966, 266.500 236 C 263.824 234.983, 263.327 232.539, 263.854 223 C 264.142 217.802, 265.886 216, 270.629 216 C 273.975 216, 281.649 214.331, 293 211.134 C 298.385 209.617, 299.665 208.838, 300.464 206.593 C 301.775 202.906, 299.860 201.781, 293.500 202.498 C 281.711 203.826, 267.519 204.821, 266.790 204.370 C 265.369 203.492, 265.921 195.311, 267.489 194.009 C 272.022 190.247, 301.892 184.175, 302.779 186.836 C 302.999 187.496, 303.892 188.749, 304.763 189.620 C 306.314 191.171, 307.543 191.147, 315.102 189.418 C 317.547 188.859, 317.741 189.094, 318.319 193.314 C 318.658 195.783, 318.503 201.560, 317.975 206.152 C 316.542 218.616, 316.755 228.203, 318.546 231.792 C 319.854 234.414, 326.938 241.182, 330.566 243.275 C 331.716 243.939, 336.123 242.524, 342.500 239.443 C 347.747 236.908, 365.346 221.868, 369.208 216.619 C 373.149 211.262, 374.921 207.015, 376.169 199.934 C 377.115 194.563, 377.006 193.874, 374.581 189.835 C 369.333 181.096, 363.907 176.808, 355.261 174.568 C 348.639 172.852, 345.659 172.822, 330 174.311 M 167.560 176.903 C 167.253 177.400, 167.475 180.663, 168.054 184.153 C 172.621 211.695, 173.139 228.883, 169.656 237.291 C 167.667 242.092, 162.611 239.615, 154.784 230.007 C 148.353 222.111, 145.235 217.090, 142.983 211 C 141.864 207.975, 140.552 204.600, 140.067 203.500 C 138.251 199.380, 136.654 191.514, 136.058 183.750 C 136.026 183.338, 135.100 182.100, 134 181 C 131.657 178.657, 126.770 178.367, 125.027 180.467 C 124.356 181.276, 123.420 187.221, 122.942 193.717 C 122.004 206.451, 121.450 209.580, 117.596 223.895 C 114.256 236.301, 113.519 243.520, 114.920 250.109 C 116.311 256.654, 119.109 259.363, 122.759 257.700 C 124.517 256.899, 125.647 256.923, 127.037 257.791 C 128.557 258.740, 128.824 258.706, 128.406 257.614 C 128.119 256.868, 128.586 255.989, 129.443 255.660 C 131.645 254.815, 131.376 252.610, 128.670 249.327 C 127.389 247.772, 126.037 245.671, 125.666 244.657 C 124.374 241.126, 129.499 215.666, 131.376 216.292 C 131.945 216.482, 133.354 218.420, 134.506 220.598 C 141.869 234.523, 149.855 243.383, 159.581 248.419 C 163.387 250.389, 167.063 252.468, 167.750 253.040 C 168.661 253.797, 169 253.652, 169 252.506 C 169 251.640, 170.575 250.003, 172.500 248.867 C 174.425 247.732, 176 246.397, 176 245.901 C 176 245.406, 176.600 245, 177.333 245 C 178.067 245, 178.719 244.438, 178.783 243.750 C 178.848 243.063, 179.591 239.800, 180.434 236.500 C 182.353 228.996, 182.395 222.420, 180.588 212.360 C 179.811 208.037, 178.907 200.861, 178.578 196.414 C 178.041 189.151, 178.185 188.142, 179.990 186.509 C 183.062 183.729, 182.541 180.497, 178.632 178.082 C 175.208 175.966, 168.576 175.260, 167.560 176.903 M 119 177.378 C 119 177.585, 119.787 178.373, 120.750 179.128 C 122.336 180.371, 122.371 180.336, 121.128 178.750 C 119.821 177.084, 119 176.555, 119 177.378 M 95.182 183.853 C 93.617 185.219, 93.355 186.595, 93.649 191.908 C 93.844 195.432, 93.393 202.182, 92.646 206.908 C 91.227 215.892, 91.700 224.863, 93.793 228.672 C 96.869 234.269, 103.545 236.626, 107.131 233.381 C 108.847 231.829, 108.838 231.603, 106.921 227.846 C 105.822 225.692, 104.513 224.183, 104.012 224.492 C 102.200 225.612, 101.686 217.236, 102.785 204.500 C 103.882 191.779, 103.640 186.655, 101.833 184.358 C 100.277 182.381, 97.142 182.142, 95.182 183.853 M 336 183.910 C 330.324 184.720, 328.202 185.879, 330.143 187.110 C 331.031 187.672, 331.093 187.975, 330.321 187.985 C 329.561 187.995, 329.143 189.955, 329.143 193.508 C 329.143 196.537, 328.628 202.275, 327.999 206.258 C 327.370 210.241, 327 216.875, 327.177 221 C 327.464 227.660, 327.752 228.611, 329.750 229.487 C 330.988 230.030, 332 231.043, 332 231.737 C 332 233.402, 332.058 233.391, 338.471 230.555 C 341.512 229.210, 344 227.635, 344 227.055 C 344 226.475, 344.379 226.112, 344.843 226.250 C 346.341 226.695, 359.968 213.651, 363.388 208.500 C 367.702 202.002, 368.545 198.480, 366.523 195.394 C 365.660 194.077, 365.205 193, 365.512 193 C 365.819 193, 365.589 192.100, 365 191 C 364.411 189.900, 363.358 189, 362.659 189 C 361.960 189, 359.911 187.910, 358.105 186.577 C 355.569 184.707, 353.987 184.270, 351.161 184.660 C 348.389 185.043, 347.864 184.906, 349 184.098 C 350.704 182.886, 343.867 182.787, 336 183.910 M 334.813 187.683 C 335.534 187.972, 336.397 187.936, 336.729 187.604 C 337.061 187.272, 336.471 187.036, 335.417 187.079 C 334.252 187.127, 334.015 187.364, 334.813 187.683 M 160.252 207.500 C 160.263 209.700, 160.468 210.482, 160.707 209.238 C 160.946 207.994, 160.937 206.194, 160.687 205.238 C 160.437 204.282, 160.241 205.300, 160.252 207.500 M 162.269 214.693 C 163.242 214.947, 164.592 214.930, 165.269 214.656 C 165.946 214.382, 165.150 214.175, 163.500 214.195 C 161.850 214.215, 161.296 214.439, 162.269 214.693 M 344.195 221.500 C 344.215 223.150, 344.439 223.704, 344.693 222.731 C 344.947 221.758, 344.930 220.408, 344.656 219.731 C 344.382 219.054, 344.175 219.850, 344.195 221.500 M 355 235.378 C 355 235.585, 355.788 236.373, 356.750 237.128 C 358.336 238.371, 358.371 238.336, 357.128 236.750 C 355.821 235.084, 355 234.555, 355 235.378 M 392.264 250.718 C 393.784 250.947, 396.034 250.941, 397.264 250.704 C 398.494 250.467, 397.250 250.279, 394.500 250.286 C 391.750 250.294, 390.744 250.488, 392.264 250.718 M 360.813 253.683 C 361.534 253.972, 362.397 253.936, 362.729 253.604 C 363.061 253.272, 362.471 253.036, 361.417 253.079 C 360.252 253.127, 360.015 253.364, 360.813 253.683 M 366.813 254.683 C 367.534 254.972, 368.397 254.936, 368.729 254.604 C 369.061 254.272, 368.471 254.036, 367.417 254.079 C 366.252 254.127, 366.015 254.364, 366.813 254.683 M 327.405 259.250 L 325.500 261.500 327.750 259.595 C 329.864 257.805, 330.455 257, 329.655 257 C 329.465 257, 328.453 258.012, 327.405 259.250 M 186.872 260.750 C 185.629 262.336, 185.664 262.371, 187.250 261.128 C 188.213 260.373, 189 259.585, 189 259.378 C 189 258.555, 188.179 259.084, 186.872 260.750 M 134.750 260.662 C 135.438 260.940, 136.563 260.940, 137.250 260.662 C 137.938 260.385, 137.375 260.158, 136 260.158 C 134.625 260.158, 134.063 260.385, 134.750 260.662 M 181 267.441 C 181 268.234, 181.408 269.134, 181.907 269.442 C 182.405 269.751, 182.578 269.102, 182.290 268.001 C 181.679 265.666, 181 265.371, 181 267.441 M 186 271.378 C 186 271.585, 186.787 272.373, 187.750 273.128 C 189.336 274.371, 189.371 274.336, 188.128 272.750 C 186.821 271.084, 186 270.555, 186 271.378 M 278.813 271.683 C 279.534 271.972, 280.397 271.936, 280.729 271.604 C 281.061 271.272, 280.471 271.036, 279.417 271.079 C 278.252 271.127, 278.015 271.364, 278.813 271.683 M 271.813 272.683 C 272.534 272.972, 273.397 272.936, 273.729 272.604 C 274.061 272.272, 273.471 272.036, 272.417 272.079 C 271.252 272.127, 271.015 272.364, 271.813 272.683 M 319.252 277.500 C 319.263 279.700, 319.468 280.482, 319.707 279.238 C 319.946 277.994, 319.937 276.194, 319.687 275.238 C 319.437 274.282, 319.241 275.300, 319.252 277.500 M 187.459 276.067 C 187.096 276.653, 187.014 277.348, 187.276 277.610 C 187.538 277.872, 188.019 277.392, 188.345 276.543 C 189.021 274.781, 188.445 274.471, 187.459 276.067 M 433.813 277.683 C 434.534 277.972, 435.397 277.936, 435.729 277.604 C 436.061 277.272, 435.471 277.036, 434.417 277.079 C 433.252 277.127, 433.015 277.364, 433.813 277.683 M 256.405 281.250 L 254.500 283.500 256.750 281.595 C 258.864 279.805, 259.455 279, 258.655 279 C 258.465 279, 257.453 280.012, 256.405 281.250 M 311 289.378 C 311 289.585, 311.788 290.373, 312.750 291.128 C 314.336 292.371, 314.371 292.336, 313.128 290.750 C 311.821 289.084, 311 288.555, 311 289.378 M 187.079 293.583 C 187.127 294.748, 187.364 294.985, 187.683 294.188 C 187.972 293.466, 187.936 292.603, 187.604 292.271 C 187.272 291.939, 187.036 292.529, 187.079 293.583 M 242.924 294.750 L 240.500 297.500 243.250 295.076 C 245.820 292.810, 246.459 292, 245.674 292 C 245.495 292, 244.258 293.238, 242.924 294.750 M 122.269 293.693 C 123.242 293.947, 124.592 293.930, 125.269 293.656 C 125.946 293.382, 125.150 293.175, 123.500 293.195 C 121.850 293.215, 121.296 293.439, 122.269 293.693 M 334 296.378 C 334 296.585, 334.788 297.373, 335.750 298.128 C 337.336 299.371, 337.371 299.336, 336.128 297.750 C 334.821 296.084, 334 295.555, 334 296.378 M 339 299 C 338.099 299.582, 337.975 299.975, 338.691 299.985 C 339.346 299.993, 340.160 299.550, 340.500 299 C 341.267 297.758, 340.921 297.758, 339 299 M 334 300.378 C 334 300.585, 334.788 301.373, 335.750 302.128 C 337.336 303.371, 337.371 303.336, 336.128 301.750 C 334.821 300.084, 334 299.555, 334 300.378 M 325.100 303.705 C 325.829 304.917, 326.640 305.694, 326.903 305.431 C 327.166 305.168, 326.570 304.176, 325.579 303.226 C 323.857 301.577, 323.835 301.598, 325.100 303.705 M 185.195 305.500 C 185.215 307.150, 185.439 307.704, 185.693 306.731 C 185.947 305.758, 185.930 304.408, 185.656 303.731 C 185.382 303.054, 185.175 303.850, 185.195 305.500 M 219.507 303.989 C 219.157 304.555, 219.558 304.723, 220.448 304.382 C 222.180 303.717, 222.497 303, 221.059 303 C 220.541 303, 219.843 303.445, 219.507 303.989 M 109.079 306.583 C 109.127 307.748, 109.364 307.985, 109.683 307.188 C 109.972 306.466, 109.936 305.603, 109.604 305.271 C 109.272 304.939, 109.036 305.529, 109.079 306.583 M 109.079 311.583 C 109.127 312.748, 109.364 312.985, 109.683 312.188 C 109.972 311.466, 109.936 310.603, 109.604 310.271 C 109.272 309.939, 109.036 310.529, 109.079 311.583 M 214.459 313.067 C 214.096 313.653, 214.014 314.348, 214.276 314.610 C 214.538 314.872, 215.019 314.392, 215.345 313.543 C 216.021 311.781, 215.445 311.471, 214.459 313.067 M 239.079 314.583 C 239.127 315.748, 239.364 315.985, 239.683 315.188 C 239.972 314.466, 239.936 313.603, 239.604 313.271 C 239.272 312.939, 239.036 313.529, 239.079 314.583 M 194.139 316.033 C 192.841 317.115, 192.209 318, 192.734 318 C 193.260 318, 194.505 317.100, 195.500 316 C 197.787 313.473, 197.195 313.487, 194.139 316.033 M 231.079 318.583 C 231.127 319.748, 231.364 319.985, 231.683 319.188 C 231.972 318.466, 231.936 317.603, 231.604 317.271 C 231.272 316.939, 231.036 317.529, 231.079 318.583 M 336.174 320.603 C 337.070 321.499, 338.283 322.067, 338.869 321.866 C 339.455 321.665, 338.722 320.931, 337.240 320.237 C 334.749 319.069, 334.668 319.097, 336.174 320.603 M 83.250 320.689 C 84.213 320.941, 85.787 320.941, 86.750 320.689 C 87.713 320.438, 86.925 320.232, 85 320.232 C 83.075 320.232, 82.287 320.438, 83.250 320.689 M 84.250 327.689 C 85.213 327.941, 86.787 327.941, 87.750 327.689 C 88.713 327.438, 87.925 327.232, 86 327.232 C 84.075 327.232, 83.287 327.438, 84.250 327.689 M 232.252 331.500 C 232.263 333.700, 232.468 334.482, 232.707 333.238 C 232.946 331.994, 232.937 330.194, 232.687 329.238 C 232.437 328.282, 232.241 329.300, 232.252 331.500 M 245 328.378 C 245 328.585, 245.787 329.373, 246.750 330.128 C 248.336 331.371, 248.371 331.336, 247.128 329.750 C 245.821 328.084, 245 327.555, 245 328.378 M 249 333.378 C 249 333.585, 249.787 334.373, 250.750 335.128 C 252.336 336.371, 252.371 336.336, 251.128 334.750 C 249.821 333.084, 249 332.555, 249 333.378 M 231.158 342 C 231.158 343.375, 231.385 343.938, 231.662 343.250 C 231.940 342.563, 231.940 341.438, 231.662 340.750 C 231.385 340.063, 231.158 340.625, 231.158 342 M 257.079 347.583 C 257.127 348.748, 257.364 348.985, 257.683 348.188 C 257.972 347.466, 257.936 346.603, 257.604 346.271 C 257.272 345.939, 257.036 346.529, 257.079 347.583 M 230.158 351 C 230.158 352.375, 230.385 352.938, 230.662 352.250 C 230.940 351.563, 230.940 350.438, 230.662 349.750 C 230.385 349.063, 230.158 349.625, 230.158 351 M 258.079 352.583 C 258.127 353.748, 258.364 353.985, 258.683 353.188 C 258.972 352.466, 258.936 351.603, 258.604 351.271 C 258.272 350.939, 258.036 351.529, 258.079 352.583 M 229.158 357 C 229.158 358.375, 229.385 358.938, 229.662 358.250 C 229.940 357.563, 229.940 356.438, 229.662 355.750 C 229.385 355.063, 229.158 355.625, 229.158 357 M 234.733 377.124 C 235.412 377.808, 236.219 378.115, 236.526 377.807 C 236.834 377.499, 236.279 376.940, 235.293 376.564 C 233.868 376.022, 233.753 376.136, 234.733 377.124" stroke="none" fill="black" fill-rule="evenodd"/>
</svg>